<svg xmlns="http://www.w3.org/2000/svg" width="15.683" height="13.953" viewBox="0 0 15.683 13.953">
  <path id="Path_306" data-name="Path 306" d="M7.842,41.953a.92.92,0,0,1-.606-.228c-.634-.554-1.244-1.075-1.783-1.534l0,0a33.166,33.166,0,0,1-3.894-3.655A5.837,5.837,0,0,1,0,32.713a4.9,4.9,0,0,1,1.244-3.348A4.217,4.217,0,0,1,4.381,28a3.945,3.945,0,0,1,2.464.851,5.042,5.042,0,0,1,1,1.04,5.041,5.041,0,0,1,1-1.04A3.945,3.945,0,0,1,11.3,28a4.218,4.218,0,0,1,3.137,1.365,4.9,4.9,0,0,1,1.244,3.348,5.837,5.837,0,0,1-1.555,3.821,33.161,33.161,0,0,1-3.893,3.655c-.54.46-1.152.981-1.787,1.537A.92.92,0,0,1,7.842,41.953ZM4.381,28.919a3.309,3.309,0,0,0-2.462,1.069,3.988,3.988,0,0,0-1,2.725,4.912,4.912,0,0,0,1.344,3.235A32.64,32.64,0,0,0,6.045,39.49l0,0c.541.461,1.154.984,1.792,1.542.642-.559,1.256-1.083,1.8-1.544a32.645,32.645,0,0,0,3.782-3.542,4.912,4.912,0,0,0,1.344-3.235,3.988,3.988,0,0,0-1-2.725A3.309,3.309,0,0,0,11.3,28.919a3.047,3.047,0,0,0-1.9.659A4.458,4.458,0,0,0,8.34,30.8a.58.58,0,0,1-1,0,4.454,4.454,0,0,0-1.06-1.227A3.047,3.047,0,0,0,4.381,28.919Z" transform="translate(0 -28)" fill="#8e8d94"/>
</svg>
