<svg width="517" height="433" viewBox="0 0 517 433" fill="none" xmlns="http://www.w3.org/2000/svg">
<path fill-rule="evenodd" clip-rule="evenodd" d="M235.896 40.8761C240.823 35.5333 248.634 38.6408 248.634 38.6408C248.634 38.6408 253.927 26.9756 261.586 24.5215C265.199 23.3654 271.049 24.9 273.965 29.4845C275.45 31.8232 278.134 37.2095 279.261 41.1689C280.29 44.7849 277.764 55.8588 277.842 64.2574C277.937 74.8702 282.747 84.2847 284.639 89.7215C286.274 94.4303 285.033 95.8808 285.033 95.8808L258.255 109.695C258.255 109.695 255.345 108.028 252.527 105.892C249.707 103.754 246.984 101.152 246.984 101.152L245.826 109.92L219.93 107.449L219.728 104.711C219.728 104.711 222.093 98.194 222.757 88.3178C223.221 81.473 223.382 74.5177 224.514 66.6033C224.999 63.1856 225.232 58.3633 226.469 55.326C228.31 50.8054 233.304 43.6867 235.896 40.8761Z" fill="#FFB869"/>
<path fill-rule="evenodd" clip-rule="evenodd" d="M183.33 296.942L299.867 307.383L303.572 315.076L308.444 321.614L305.765 326.312C305.765 326.312 286.806 320.085 265.653 316.9C244.497 313.717 221.141 313.578 221.141 313.578L190.394 315.895L181.548 317.653C181.548 317.653 181.212 318.667 181.228 315.872C181.276 307.101 183.33 296.942 183.33 296.942Z" fill="#A5BFD2"/>
<path fill-rule="evenodd" clip-rule="evenodd" d="M221.756 106.285C223.182 105.463 226.586 103.865 226.586 103.865L229.559 106.662C229.559 106.662 234.839 108.786 237.963 109.036C241.088 109.286 242.623 107.466 242.623 107.466C242.623 107.466 245.961 109.059 246.742 112.628C247.525 116.197 245.19 121.942 245.19 121.942L246.168 132.247L246.541 157.612L210.42 154.098C210.42 154.098 211.187 144.537 214.462 135.478C215.716 132.006 214.406 128.309 214.935 124.244C215.083 123.111 215.918 120.858 216.329 119.904C217.961 116.101 217.262 112.466 218.584 109.581C219.113 108.43 220.705 106.892 221.756 106.285Z" fill="#A5BFD2"/>
<path fill-rule="evenodd" clip-rule="evenodd" d="M262.927 102.192C264.554 100.341 270.994 97.1088 270.994 97.1088C270.994 97.1088 273.063 98.7258 276.161 98.3501C279.256 97.9737 283.376 95.6126 283.376 95.6126C283.376 95.6126 285.962 95.9365 287.215 98.5322C288.389 100.972 288.165 105.544 290.181 109.849C293.475 116.895 298.007 126.673 300.935 134.143C307.549 151.033 309.834 163.167 309.834 163.167L263.835 159.164C263.835 159.164 259.259 143.158 259.034 128.914C258.999 126.74 259.216 121.571 258.97 119.952C258.005 113.635 256.672 112.15 258.663 108.438C259.498 106.882 260.251 105.243 262.927 102.192Z" fill="#A5BFD2"/>
<path fill-rule="evenodd" clip-rule="evenodd" d="M168.867 155.153L169.625 151.725L172.425 151.019L352.64 166.779L353.981 168.274L354.263 170.991L331.597 218.805L328.717 220.294L331.856 221.115L333.712 223.935L326.85 304.499L299.487 307.232L228.608 300.861L177.731 296.154L175.924 292.683L182.676 211.97L183.496 209.508L186.567 207.601L184.149 205.783L168.867 155.153Z" fill="#B7BBC3"/>
<path fill-rule="evenodd" clip-rule="evenodd" d="M199.196 258.256C199.196 258.256 201.284 249.066 203.341 244.274C205.618 238.965 207.925 238.074 208.748 239.793C210.047 242.507 207.267 249.008 206.691 254.694C206.293 258.618 207.8 263.092 208.951 261.832C210.249 260.411 209.624 251.788 210.687 247.16C211.772 242.451 213.416 238.8 214.852 235.693C216.335 232.483 217.607 229.891 218.717 230.077C219.234 230.164 220.997 230.749 220.91 232.982C220.761 236.733 219.112 241.834 218.206 246.962C217.234 252.443 217.041 257.815 218.07 257.136C219.975 255.88 220.542 248.989 222.656 243.412C226.131 234.233 231.089 225.202 233.153 225.579C233.589 225.66 235.239 226.709 234.636 229.8C233.576 235.198 229.557 244.766 228.263 251.487C227.343 256.267 226.893 261.075 227.439 261.472C229.015 262.608 234.898 242.622 238.995 234.705C240.703 231.4 242.99 234.185 243.104 235.118C244.182 243.999 239.04 256.542 239.04 256.542C239.04 256.542 242.168 254.934 242.691 256.741C243.452 259.363 241.637 266.052 241.099 269.238C240.248 274.254 239.681 281.433 236.789 288.274C233.859 295.204 229.557 299.677 225.941 305.185C222.16 310.942 219.131 317.584 219.131 317.584L196.28 308.986L200.436 295.788L199.196 258.256Z" fill="#FFE1C7"/>
<path fill-rule="evenodd" clip-rule="evenodd" d="M286.452 253.672C286.452 253.672 285.567 247.002 283.971 241.17C282.327 235.175 280.011 229.987 282.876 227.889C283.53 227.408 284.669 227.1 285.9 228.621C287.841 231.029 290.128 236.545 291.983 241.958C293.778 247.196 293.878 256.03 295.972 257.018C297.201 257.594 297.24 248.722 295.965 240.78C294.841 233.773 292.432 227.895 292.595 224.085C292.73 220.765 294.339 219.519 295.873 220.761C297.78 222.306 299.677 226.915 299.677 226.915C299.677 226.915 301.087 226.838 303.427 229.389C305.77 231.941 309.038 237.122 309.038 237.122C309.038 237.122 312.1 237.813 314.896 241.997C316.4 244.242 317.439 246.567 318.763 252.418C320.077 258.238 320.341 264.763 319.891 270.888C319.402 277.52 318.151 283.735 318.504 289.468C318.765 293.674 324.187 304.108 324.187 304.108L304.149 316.109C304.149 316.109 301.415 309.874 298.34 305.025C295.357 300.316 292.076 297.063 289.054 292.126C287.092 288.927 285.015 283.651 283.826 280.118C282.371 275.8 282.725 267.8 282.277 264.215C281.652 259.181 279.217 253.183 280.401 250.687C281.827 247.68 286.452 253.672 286.452 253.672Z" fill="#FFE1C7"/>
<path fill-rule="evenodd" clip-rule="evenodd" d="M236.263 40.4089C241.772 35.5623 248.464 38.3729 248.464 38.3729C248.464 38.3729 254.249 27.2487 260.486 24.8073C263.821 23.504 267.532 24.3006 270.037 25.6822C272.217 26.881 273.592 29.7954 273.592 29.7954C273.592 29.7954 267.818 25.3804 262.324 28.4562C257.984 30.8835 254.22 37.0433 251.465 42.9531C248.654 48.985 250.221 59.5094 250.475 66.6465C250.749 74.2884 250.134 78.5864 250.134 78.5864L247.415 96.3141L247.766 101.562C247.766 101.562 243.446 98.6811 243.162 95.7114C242.612 89.99 245.265 78.7158 245.265 78.7158L248.307 76.6362L248.661 74.2892L246.946 67.7093C246.946 67.7093 246.415 60.3444 246.559 54.0848C246.703 47.8229 247.522 42.6688 247.522 42.6688C247.522 42.6688 242.681 40.2869 238.152 43.6033C232.925 47.4355 226.421 57.7633 226.421 57.7633C226.421 57.7633 226.573 54.7268 228.446 50.8387C230.205 47.1911 233.594 42.7576 236.263 40.4089Z" fill="#CD8650"/>
<path fill-rule="evenodd" clip-rule="evenodd" d="M181.105 335.567C181.105 335.567 178.405 323.008 180.378 318.639C181.176 316.88 182.773 317.098 184.604 316.8C187.313 316.361 190.321 315.977 190.321 315.977C190.321 315.977 189.983 311.262 192.601 309.991C194.982 308.839 205.793 309.782 207.579 310.458C208.94 310.971 212.105 312.02 214.72 313.675C217.193 315.241 219.159 317.43 219.159 317.43L220.854 313.857C220.854 313.857 243.895 313.89 265.089 317.082C286.283 320.275 305.635 326.624 305.635 326.624C305.635 326.624 305.144 324.917 305.048 324.804C302.964 322.362 301.418 320.83 302.305 318.998C304.026 315.448 308.375 310.705 312.521 308.162C317.645 305.02 322.647 304.451 324.196 304.247C328.016 303.743 329.317 306.334 329.951 309.305C330.28 310.827 332.852 313.389 333.766 315.267C334.632 317.045 333.844 318.18 333.844 318.18L357.81 363.327C357.81 363.327 322.412 375.41 271.082 373.61C216.887 371.71 172.092 353.866 172.092 353.866L181.105 335.567Z" fill="#ECDCCB"/>
<path d="M219.156 318.088C219.127 318.08 219.099 318.07 219.07 318.06C218.63 317.893 218.406 317.399 218.573 316.957C221.65 308.816 226.661 301.882 230.323 296.816C231.702 294.912 232.89 293.265 233.577 292.075C236.991 286.185 238.91 280.415 239.446 274.432C239.829 270.132 240.694 265.795 241.328 262.629C241.743 260.542 242.175 258.381 242.096 257.874C241.983 257.153 241.759 256.68 241.479 256.57C241.177 256.47 240.501 256.606 239.509 257.398C239.14 257.692 238.6 257.633 238.304 257.262C238.01 256.893 238.07 256.352 238.439 256.059C239.825 254.956 241.095 254.594 242.099 254.974C243.001 255.325 243.572 256.212 243.788 257.61C243.908 258.381 243.621 259.894 243.007 262.964C242.382 266.094 241.526 270.376 241.15 274.585C240.595 280.822 238.602 286.824 235.062 292.933C234.329 294.2 233.116 295.876 231.71 297.82C228.109 302.806 223.171 309.635 220.175 317.561C220.021 317.976 219.575 318.198 219.156 318.088Z" fill="#5B2714"/>
<path d="M195.905 309.76C195.86 309.749 195.815 309.732 195.769 309.712C195.34 309.516 195.146 309.007 195.343 308.578C195.388 308.483 199.641 299.058 199.569 293.799C199.526 290.663 199.415 288.341 199.306 286.095C199.175 283.403 199.051 280.861 199.05 277.13C199.047 272.694 198.812 269.6 198.62 267.115C198.354 263.669 198.165 261.176 198.717 257.521C198.747 257.322 202.709 237.832 207.598 238.437C208.259 238.517 208.809 238.84 209.19 239.362C209.907 240.337 210.036 242.017 209.582 244.5C209.352 245.757 209.039 247.022 208.733 248.249C208.188 250.45 207.62 252.727 207.477 255.176C207.288 258.41 208.013 260.663 208.46 261.215C208.843 260.536 209.297 258.221 209.517 251.482C209.635 247.808 210.17 244.559 212.459 239.704C212.764 239.054 213.146 238.058 213.548 237.005C215.402 232.154 216.877 228.746 219 229.094C219.958 229.258 220.687 229.698 221.17 230.417C222.034 231.716 222.058 233.815 221.25 237.228C220.846 238.925 220.472 240.263 220.143 241.442C219.423 244.011 218.855 246.042 218.436 250.183C218.237 252.11 218.152 253.666 218.138 254.868C218.225 254.57 218.316 254.255 218.415 253.932C219.173 251.355 220.218 247.826 221.428 244.395C223.441 238.683 224.202 237.109 225.865 233.665L226.178 233.017C229.878 225.353 231.851 224.604 233.159 224.808C234.083 224.953 234.787 225.383 235.229 226.084C236.372 227.898 235.506 231.255 234.252 235.45C233.574 237.733 232.877 239.459 232.199 241.125C231.176 243.664 230.205 246.061 229.428 250.143C229.398 250.312 229.318 250.648 229.216 251.102C227.737 257.557 227.692 259.762 227.844 260.514C228.312 259.998 229.342 258.292 231.16 252.687C231.245 252.425 231.307 252.231 231.347 252.123C231.826 250.745 232.205 249.647 232.528 248.713C233.545 245.771 234.007 244.428 235.287 241.259C235.568 240.564 235.842 239.852 236.108 239.146C237.645 235.118 238.973 231.64 241.428 232.154C242.255 232.327 242.895 232.767 243.328 233.468C244.962 236.084 243.465 241.949 240.993 251.664L240.533 253.479C237.621 264.931 235.515 273.206 235.584 277.659C235.591 278.131 235.212 278.521 234.74 278.529C234.266 278.536 233.876 278.157 233.869 277.684C233.799 273.003 235.925 264.635 238.871 253.055L239.331 251.243C241.448 242.933 243.12 236.368 241.874 234.374C241.689 234.077 241.457 233.918 241.077 233.831C240.051 233.616 238.644 237.311 237.71 239.756C237.438 240.471 237.161 241.195 236.878 241.9C235.614 245.029 235.184 246.272 234.149 249.271C233.825 250.207 233.443 251.308 232.963 252.687C232.928 252.789 232.869 252.97 232.789 253.213C230.487 260.308 229.008 262.81 227.355 262.375C227.336 262.37 227.318 262.365 227.302 262.361C225.607 261.853 225.666 258.914 227.546 250.72C227.644 250.293 227.718 249.981 227.745 249.823C228.554 245.575 229.553 243.103 230.611 240.483C231.272 238.853 231.953 237.166 232.611 234.959C233.617 231.588 234.537 228.197 233.778 226.999C233.672 226.827 233.46 226.592 232.894 226.5C232.829 226.491 231.304 226.344 227.724 233.763L227.408 234.409C225.722 237.899 225.026 239.344 223.043 244.965C221.85 248.354 220.814 251.859 220.058 254.418C219.431 256.536 219.018 257.935 218.744 258.531C218.339 259.426 217.686 259.321 217.481 259.273C217.027 259.148 215.826 258.825 216.728 250.009C217.167 245.72 217.753 243.628 218.494 240.98C218.817 239.815 219.189 238.497 219.581 236.833C220.243 234.039 220.301 232.202 219.745 231.37C219.611 231.167 219.353 230.89 218.721 230.786C218.118 230.687 216.915 232.984 215.147 237.614C214.715 238.747 214.343 239.726 214.009 240.432C211.846 245.023 211.341 248.083 211.23 251.539C210.962 259.709 210.418 262.482 208.986 262.949C208.487 263.113 207.969 263.019 207.528 262.675C206.079 261.562 205.598 257.953 205.768 255.074C205.918 252.469 206.506 250.114 207.072 247.836C207.382 246.582 207.676 245.397 207.895 244.191C208.383 241.518 207.997 240.632 207.81 240.376C207.705 240.234 207.58 240.166 207.386 240.138C205.325 239.883 201.252 252.218 200.412 257.777C199.887 261.241 200.071 263.649 200.33 266.982C200.522 269.498 200.762 272.628 200.765 277.128C200.766 280.818 200.888 283.341 201.017 286.014C201.127 288.274 201.241 290.609 201.281 293.776C201.358 299.419 197.086 308.886 196.902 309.288C196.728 309.674 196.303 309.865 195.905 309.76Z" fill="#5B2714"/>
<path d="M303.683 316.405C303.425 316.337 303.205 316.152 303.098 315.883C299.786 307.305 295.518 302.113 292.399 298.323C291.369 297.072 290.481 295.992 289.809 295.003C287.473 291.577 285.305 286.614 284.053 283.107C282.258 278.074 282.17 276.038 281.97 271.579C281.909 270.212 281.839 268.605 281.704 266.596C281.513 263.699 280.847 260.751 280.265 258.148C279.696 255.605 279.203 253.408 279.269 251.808C279.327 250.325 280.019 249.656 280.584 249.354C281.491 248.876 282.717 249.019 283.856 249.73C286.545 251.41 287.395 254.184 287.43 254.302C287.564 254.754 287.307 255.233 286.851 255.366C286.396 255.5 285.923 255.241 285.785 254.789C285.781 254.769 285.074 252.511 282.948 251.184C282.367 250.824 281.725 250.694 281.386 250.871C281.078 251.034 280.995 251.509 280.981 251.878C280.925 253.252 281.395 255.347 281.935 257.774C282.535 260.436 283.212 263.455 283.411 266.483C283.548 268.509 283.619 270.126 283.68 271.503C283.876 275.914 283.958 277.739 285.668 282.533C286.827 285.78 288.978 290.744 291.224 294.038C291.854 294.964 292.719 296.017 293.722 297.235C296.914 301.114 301.287 306.429 304.698 315.266C304.867 315.709 304.649 316.203 304.209 316.377C304.031 316.441 303.849 316.448 303.683 316.405Z" fill="#5B2714"/>
<path d="M323.796 304.689C323.581 304.632 323.39 304.494 323.269 304.286C323.009 303.83 316.9 293.034 317.509 287.3L317.782 284.769C318.391 279.102 318.876 274.627 319.235 268.61C319.485 264.502 319.458 262.826 318.792 258.015C318.152 253.376 317.369 248.572 315.499 245.25C312.361 239.68 309.935 237.532 308.94 237.878C308.49 238.031 308.004 237.792 307.851 237.343C307.701 236.897 307.938 236.409 308.384 236.256C310.613 235.494 313.513 238.236 316.99 244.41C319.012 247.992 319.828 252.978 320.49 257.78C321.177 262.74 321.204 264.47 320.945 268.713C320.583 274.77 320.099 279.264 319.484 284.953L319.213 287.481C318.662 292.669 324.695 303.331 324.758 303.439C324.992 303.849 324.849 304.37 324.438 304.606C324.235 304.721 324.005 304.744 323.796 304.689Z" fill="#5B2714"/>
<path d="M313.75 259.689C313.418 259.602 313.157 259.319 313.116 258.956C313.056 258.431 313.001 257.811 312.933 257.105C312.694 254.548 312.368 251.049 311.55 246.821C310.888 243.366 309.762 240.62 307.546 237.024L306.997 236.131C305.007 232.874 301.974 227.952 299.28 227.438C298.822 227.335 298.507 226.901 298.596 226.437C298.686 225.973 299.134 225.667 299.599 225.754C303.078 226.425 306.184 231.512 308.457 235.238L309.002 236.124C311.308 239.862 312.537 242.868 313.233 246.495C314.067 250.808 314.41 254.502 314.64 256.945C314.702 257.639 314.762 258.25 314.821 258.768C314.87 259.238 314.534 259.662 314.062 259.714C313.952 259.724 313.85 259.716 313.75 259.689Z" fill="#5B2714"/>
<path d="M286.997 271.445C286.641 271.352 286.374 271.038 286.36 270.654C286.242 268.023 286.215 265.811 286.185 263.672C286.107 257.271 286.046 252.217 283.414 242.051C283.186 241.165 282.942 240.278 282.705 239.401C281.057 233.359 279.638 228.139 282.93 226.611C283.57 226.318 284.246 226.292 284.893 226.547C286.428 227.15 287.793 229.201 289.606 233.629C290.08 234.788 290.478 235.695 290.829 236.491C291.909 238.948 292.562 240.431 293.595 245.026C293.842 246.132 294.084 247.429 294.327 248.756C294.755 251.062 295.434 254.728 296.083 255.95C296.307 254.986 296.453 252.275 295.623 244.667C295.579 244.272 295.549 243.987 295.538 243.845C295.092 238.709 294.546 236.585 293.643 233.067C293.33 231.847 292.977 230.473 292.575 228.764C291.619 224.694 291.633 222.154 292.624 220.773C293.103 220.107 293.812 219.709 294.683 219.625C296.858 219.422 298.604 221.865 300.708 228.085C301.224 229.607 301.708 230.87 302.174 232.092C303.321 235.095 304.314 237.688 305.149 242.511C306.295 249.138 307.019 256.343 307.026 256.414C307.072 256.885 306.728 257.304 306.258 257.351C305.79 257.402 305.366 257.055 305.32 256.584C305.313 256.513 304.592 249.368 303.459 242.804C302.654 238.145 301.694 235.623 300.573 232.705C300.101 231.467 299.611 230.188 299.085 228.634C296.885 222.134 295.481 221.265 294.846 221.331C294.465 221.367 294.208 221.504 294.016 221.771C293.561 222.407 293.233 224.068 294.243 228.372C294.64 230.067 294.992 231.431 295.302 232.64C296.198 236.122 296.788 238.419 297.244 243.698C297.257 243.834 297.285 244.105 297.328 244.478C298.525 255.45 297.944 257.683 296.453 257.961C296.082 258.032 295.71 257.95 295.385 257.725C294.141 256.87 293.534 253.88 292.642 249.068C292.402 247.763 292.164 246.487 291.922 245.402C290.923 240.968 290.332 239.623 289.259 237.178C288.905 236.371 288.502 235.455 288.021 234.278C287.457 232.903 285.745 228.723 284.266 228.141C284.047 228.062 283.866 228.066 283.651 228.166C281.668 229.084 283.036 234.101 284.357 238.95C284.598 239.834 284.843 240.729 285.073 241.62C287.755 251.988 287.82 257.133 287.9 263.651C287.924 265.777 287.954 267.974 288.067 270.578C288.09 271.05 287.725 271.45 287.253 271.471C287.162 271.476 287.078 271.467 286.997 271.445Z" fill="#5B2714"/>
<path d="M326.387 305.161C325.977 305.053 325.698 304.649 325.758 304.214C325.815 303.805 325.821 303.524 325.824 303.499L332.611 225.64C332.664 225.064 332.656 223.399 332.012 222.558C331.387 221.739 329.913 221.417 329.394 221.36L316.177 220.207C315.715 220.176 315.357 219.751 315.4 219.278C315.445 218.808 315.86 218.46 316.329 218.501L329.556 219.654C329.838 219.685 332.187 219.966 333.375 221.517C334.54 223.04 334.342 225.517 334.316 225.795L327.532 303.576C327.534 303.582 327.525 303.939 327.455 304.451C327.39 304.92 326.957 305.246 326.487 305.182C326.455 305.176 326.422 305.17 326.387 305.161Z" fill="#5B2714"/>
<path d="M179.139 297.204C178.096 296.93 176.9 296.435 176.124 295.545C174.523 293.709 175.008 290.465 175.028 290.328L181.802 212.4C181.806 212.166 181.925 209.667 183.423 208.376C184.91 207.098 187.466 207.268 187.752 207.294L200.196 208.379C200.653 208.41 201.019 208.825 200.985 209.29C200.954 209.755 200.566 210.111 200.099 210.089L187.606 209C187.031 208.954 185.344 208.984 184.542 209.674C183.754 210.355 183.529 211.946 183.511 212.5L176.728 290.534C176.613 291.311 176.524 293.397 177.414 294.42C178.323 295.46 180.558 295.789 181.343 295.83L199.121 297.343C199.582 297.39 199.944 297.798 199.901 298.27C199.861 298.741 199.445 299.09 198.975 299.052L181.229 297.539C181.066 297.532 180.179 297.478 179.139 297.204Z" fill="#5B2714"/>
<path d="M228.82 301.62C228.423 301.516 228.147 301.135 228.186 300.714C228.227 300.24 228.645 299.895 229.113 299.938L299.466 306.289C299.951 306.329 300.288 306.751 300.242 307.22C300.202 307.693 299.784 308.039 299.312 307.995L228.963 301.644C228.912 301.639 228.865 301.632 228.82 301.62Z" fill="#5B2714"/>
<path d="M185.587 266.049C185.15 265.934 184.625 265.711 184.275 265.275C183.642 264.483 183.815 263.286 183.86 263.055L187.615 219.917C187.622 219.727 187.696 218.507 188.412 217.831C189.171 217.117 190.346 217.24 190.572 217.271L293.101 226.21C293.571 226.246 293.952 226.667 293.911 227.139C293.87 227.611 293.488 227.963 293.017 227.922L190.383 218.973C190.088 218.937 189.696 218.979 189.587 219.077C189.456 219.2 189.339 219.695 189.327 220.018L185.555 263.281C185.492 263.673 185.525 264.096 185.614 264.204C185.699 264.312 186.109 264.437 186.435 264.458L199.212 265.577C199.683 265.622 200.033 266.033 199.989 266.505C199.948 266.975 199.533 267.324 199.062 267.283L186.318 266.166C186.226 266.163 185.937 266.141 185.587 266.049Z" fill="#5B2714"/>
<path d="M320.123 277.819C319.712 277.711 319.434 277.309 319.494 276.877C319.557 276.41 319.988 276.078 320.454 276.141C320.79 276.183 321.272 276.136 321.428 275.999C321.593 275.856 321.725 275.352 321.741 274.986L325.466 232.245C325.532 231.782 325.492 231.186 325.336 230.991C325.176 230.79 324.617 230.659 324.29 230.647L301.806 228.688C301.339 228.653 300.969 228.233 301.006 227.765C301.045 227.297 301.428 226.943 301.9 226.976L301.939 226.978L324.396 228.938C324.612 228.941 325.972 229.029 326.682 229.928C327.377 230.808 327.206 232.182 327.169 232.45L323.449 275.094C323.444 275.302 323.359 276.589 322.555 277.291C321.738 278.003 320.472 277.874 320.228 277.841C320.193 277.835 320.158 277.828 320.123 277.819Z" fill="#5B2714"/>
<path d="M241.192 270.925C240.794 270.82 240.513 270.449 240.543 270.028C240.582 269.562 240.978 269.208 241.443 269.242L282.54 272.828C283.01 272.879 283.357 273.283 283.316 273.756C283.276 274.227 282.86 274.576 282.387 274.534L241.331 270.949C241.282 270.946 241.238 270.937 241.192 270.925Z" fill="#5B2714"/>
<path d="M199.705 213.464C199.306 213.359 199.033 212.982 199.071 212.56L199.544 207.126C199.565 206.9 199.671 206.691 199.847 206.545C200.02 206.398 200.244 206.328 200.47 206.347L316.236 216.439C316.461 216.46 316.67 216.568 316.817 216.742C316.963 216.916 317.032 217.141 317.015 217.367L316.541 222.802C316.5 223.274 316.085 223.622 315.612 223.581L296.63 221.926C296.159 221.89 295.773 221.468 295.814 220.998C295.851 220.527 296.232 220.175 296.702 220.213L314.907 221.8L315.233 218.072L201.177 208.129L200.851 211.856L293.382 219.923C293.858 219.976 294.204 220.38 294.163 220.851C294.123 221.323 293.707 221.672 293.234 221.63L199.849 213.489C199.799 213.483 199.75 213.476 199.705 213.464Z" fill="#5B2714"/>
<path fill-rule="evenodd" clip-rule="evenodd" d="M173.178 156.87C173.97 155.899 176.305 156.191 176.305 156.191L347.821 171.032C347.821 171.032 349.684 171.08 350.027 172.159C350.369 173.241 349.703 174.429 349.703 174.429L331.045 214.462C331.045 214.462 330.229 216.275 328.929 216.798C327.628 217.322 325.97 217.051 325.97 217.051L190.595 205.22C190.595 205.22 188.627 205.115 187.574 204.37C186.523 203.625 186.268 202.53 186.268 202.53L173.035 159.481C173.035 159.481 172.448 157.762 173.178 156.87Z" fill="white"/>
<path d="M348.481 171.991C348.253 171.931 348.002 171.894 347.794 171.887L176.228 157.044C175.416 156.946 174.158 157.021 173.842 157.411L173.842 157.411C173.553 157.762 173.673 158.689 173.848 159.205L187.09 202.278C187.105 202.336 187.312 203.134 188.069 203.67C188.76 204.162 190.163 204.337 190.64 204.363L326.045 216.197C326.119 216.207 327.553 216.428 328.609 216.002C329.404 215.682 330.075 214.526 330.265 214.107L348.926 174.066C349.088 173.768 349.396 173.004 349.209 172.418C349.151 172.234 348.836 172.085 348.481 171.991ZM188.738 205.785C188.167 205.635 187.561 205.411 187.08 205.07C185.797 204.162 185.467 202.866 185.431 202.721L172.217 159.732C172.149 159.536 171.512 157.553 172.512 156.326C173.554 155.054 175.94 155.281 176.412 155.34L347.896 170.178C348.092 170.179 350.328 170.284 350.841 171.899C351.285 173.294 350.537 174.692 350.45 174.846L331.823 214.823C331.728 215.031 330.821 216.958 329.249 217.592C327.742 218.198 325.909 217.909 325.832 217.896L190.521 206.073C190.399 206.067 189.615 206.016 188.738 205.785Z" fill="#5B2714"/>
<path d="M168.855 156.266C168.506 156.174 168.238 155.868 168.216 155.491C168.199 155.223 168.076 152.833 169.01 151.615C170.111 150.182 172.763 150.475 173.062 150.513L351.809 165.971C352.705 166.023 354.375 166.525 354.799 168.105C355.238 169.766 354.878 170.892 354.639 171.636C354.494 172.086 354.007 172.318 353.56 172.19C353.109 172.044 352.863 171.563 353.008 171.112C353.216 170.46 353.454 169.722 353.142 168.546C352.936 167.784 351.698 167.682 351.682 167.679L172.879 152.216C172.06 152.115 170.728 152.189 170.367 152.659C169.978 153.168 169.874 154.558 169.926 155.383C169.956 155.855 169.598 156.262 169.123 156.291C169.028 156.296 168.94 156.288 168.855 156.266Z" fill="#5B2714"/>
<path d="M214.005 334.446C213.831 334.4 213.671 334.299 213.55 334.148C213.261 333.777 213.325 333.237 213.694 332.943C215.758 331.321 215.896 330.003 216.067 328.336C216.131 327.7 216.199 327.043 216.376 326.326C216.647 325.21 217.328 324.183 217.984 323.191C219.056 321.577 219.673 320.528 219.203 319.548C218.237 317.521 214.849 313.552 208.304 311.534C201.361 309.402 194.757 309.906 193.299 310.765C191.714 311.699 191.623 312.575 191.459 314.17C191.39 314.804 191.317 315.525 191.123 316.325C190.809 317.637 189.93 318.666 189.079 319.661C188.006 320.911 187.079 321.992 187.447 323.395C187.569 323.852 187.296 324.321 186.835 324.443C186.38 324.558 185.911 324.288 185.789 323.832C185.192 321.558 186.566 319.958 187.777 318.545C188.53 317.667 189.24 316.837 189.457 315.929C189.622 315.237 189.689 314.603 189.751 313.993C189.932 312.279 190.1 310.659 192.431 309.287C194.77 307.91 202.062 307.816 208.807 309.897C215.457 311.945 219.396 315.979 220.751 318.809C221.673 320.735 220.47 322.543 219.413 324.141C218.837 325.009 218.24 325.908 218.037 326.732C217.89 327.335 217.831 327.907 217.772 328.512C217.583 330.333 217.39 332.218 214.755 334.291C214.537 334.464 214.258 334.512 214.005 334.446Z" fill="#5B2714"/>
<path d="M171.909 354.579C171.853 354.564 171.797 354.541 171.742 354.514C171.318 354.304 171.148 353.789 171.358 353.365L187.159 321.697C187.371 321.274 187.883 321.1 188.308 321.313C188.731 321.525 188.904 322.039 188.694 322.462L172.893 354.131C172.708 354.501 172.293 354.68 171.909 354.579Z" fill="#5B2714"/>
<path d="M204.371 364.868C204.353 364.863 204.34 364.86 204.325 364.856C203.874 364.712 203.628 364.231 203.769 363.778C203.855 363.514 212.246 337.313 213.534 331.561C213.636 331.099 214.093 330.808 214.557 330.911C214.973 330.979 215.31 331.472 215.202 331.935C213.9 337.761 205.748 363.22 205.403 364.301C205.261 364.737 204.807 364.983 204.371 364.868Z" fill="#5B2714"/>
<path d="M214.929 333.243C214.74 333.194 214.568 333.081 214.447 332.91C206.236 321.274 189.12 322.248 187.491 323.1C187.074 323.319 186.554 323.162 186.334 322.737C186.115 322.319 186.276 321.8 186.696 321.582C189.298 320.224 207.248 319.737 215.846 331.921C216.118 332.306 216.027 332.844 215.64 333.115C215.423 333.267 215.162 333.305 214.929 333.243Z" fill="#5B2714"/>
<path d="M308.139 333.435C308.081 333.42 308.02 333.399 307.966 333.369C305.87 332.303 305.589 330.214 305.341 328.371C305.187 327.226 305.041 326.142 304.507 325.373C304.101 324.79 303.672 324.32 303.261 323.865C302.098 322.592 301.001 321.391 301.528 318.737C302.058 316.074 306.847 310.565 312.876 306.918C318.831 303.313 324.446 303.079 327.477 303.928C329.53 304.521 330.082 306.62 330.568 308.471C330.834 309.483 331.108 310.525 331.588 311.225C331.939 311.737 332.328 312.16 332.741 312.61C333.977 313.962 335.252 315.36 335.047 318.704C335.019 319.178 334.612 319.537 334.137 319.508C333.673 319.476 333.307 319.072 333.338 318.599C333.499 315.979 332.605 315.004 331.476 313.765C331.04 313.294 330.596 312.804 330.179 312.198C329.525 311.25 329.213 310.06 328.911 308.91C328.418 307.034 328.045 305.875 327.002 305.575C324.878 304.962 319.625 304.837 313.762 308.382C307.559 312.136 303.537 317.41 303.211 319.071C302.849 320.875 303.444 321.528 304.526 322.71C304.954 323.183 305.442 323.717 305.914 324.395C306.685 325.503 306.867 326.844 307.04 328.142C307.26 329.776 307.453 331.185 308.741 331.844C309.164 332.059 309.334 332.574 309.119 332.997C308.933 333.362 308.519 333.535 308.139 333.435Z" fill="#5B2714"/>
<path d="M321.697 372.447C321.427 372.376 321.197 372.176 321.105 371.893L307.274 330.886C307.124 330.438 307.363 329.952 307.813 329.802C308.261 329.65 308.748 329.889 308.898 330.34L322.726 371.343C322.879 371.793 322.637 372.278 322.19 372.429C322.025 372.487 321.857 372.489 321.697 372.447Z" fill="#5B2714"/>
<path d="M357.799 364.487C357.585 364.43 357.39 364.291 357.272 364.079C354.028 358.316 349.651 349.995 345.42 341.947C339.639 330.95 334.177 320.564 332.193 317.802C331.918 317.417 332.007 316.881 332.39 316.604C332.775 316.33 333.31 316.419 333.589 316.803C335.639 319.663 341.129 330.099 346.937 341.15C351.163 349.187 355.535 357.498 358.762 363.239C358.998 363.65 358.849 364.173 358.437 364.406C358.238 364.519 358.007 364.541 357.799 364.487Z" fill="#5B2714"/>
<path d="M307.499 332.238C307.048 332.119 306.774 331.659 306.887 331.202C307.6 328.357 319.186 314.631 333.997 316.318C334.46 316.379 334.808 316.797 334.754 317.267C334.7 317.736 334.278 318.075 333.806 318.021C319.658 316.409 308.998 329.835 308.549 331.621C308.433 332.077 307.968 332.356 307.509 332.241C307.506 332.24 307.503 332.239 307.499 332.238Z" fill="#5B2714"/>
<path d="M231.413 297.956C231.014 297.851 230.739 297.47 230.78 297.047C230.822 296.576 231.239 296.228 231.709 296.271L268.747 299.732L270.946 276.214L240.822 273.401C240.349 273.36 240.005 272.941 240.05 272.468C240.092 271.996 240.508 271.65 240.979 271.693L271.959 274.586C272.177 274.605 272.391 274.718 272.537 274.893C272.682 275.069 272.751 275.294 272.728 275.521L270.373 300.744C270.353 300.972 270.24 301.18 270.066 301.323C269.893 301.469 269.665 301.539 269.441 301.519L231.553 297.979C231.505 297.974 231.459 297.968 231.413 297.956Z" fill="#5B2714"/>
<path d="M230.984 297.914C230.588 297.81 230.311 297.432 230.349 297.01C230.392 296.537 230.809 296.189 231.278 296.232C231.755 296.272 232.141 296.696 232.096 297.166C232.054 297.636 231.677 297.99 231.206 297.946L231.127 297.938C231.077 297.936 231.032 297.926 230.984 297.914Z" fill="#5B2714"/>
<path d="M320.123 277.819C319.712 277.711 319.434 277.309 319.494 276.877C319.557 276.41 319.988 276.078 320.454 276.141C320.79 276.183 321.272 276.136 321.428 275.999C321.593 275.856 321.725 275.352 321.741 274.986L325.466 232.245C325.532 231.782 325.492 231.186 325.336 230.991C325.176 230.79 324.617 230.659 324.29 230.647L301.806 228.688C301.339 228.653 300.969 228.233 301.006 227.765C301.045 227.297 301.428 226.943 301.9 226.976L301.939 226.978L324.396 228.938C324.612 228.941 325.972 229.029 326.682 229.928C327.377 230.808 327.206 232.182 327.169 232.45L323.449 275.094C323.444 275.302 323.359 276.589 322.555 277.291C321.738 278.003 320.472 277.874 320.228 277.841C320.193 277.835 320.158 277.828 320.123 277.819Z" fill="#5B2714"/>
<path d="M180.987 318.593C180.627 318.498 180.357 318.174 180.349 317.781C180.226 311.36 180.889 305.843 182.245 297.288C182.319 296.821 182.757 296.502 183.224 296.575C183.687 296.645 184.011 297.087 183.937 297.554C182.599 306.013 181.942 311.457 182.063 317.748C182.073 318.221 181.696 318.611 181.223 318.621C181.142 318.623 181.062 318.613 180.987 318.593Z" fill="#5B2714"/>
<path d="M180.613 336.744C180.291 336.66 180.036 336.391 179.982 336.043C179.009 329.567 178.145 321.267 179.565 318.505C180.091 317.479 181.782 316.153 190.235 315.011C190.703 314.951 191.135 315.277 191.198 315.746C191.262 316.213 190.934 316.644 190.464 316.709C182.23 317.824 181.208 319.053 181.087 319.288C180.17 321.073 180.391 327.242 181.677 335.787C181.748 336.256 181.426 336.694 180.957 336.762C180.839 336.78 180.722 336.773 180.613 336.744Z" fill="#5B2714"/>
<path d="M220.905 314.759C220.543 314.664 220.271 314.336 220.269 313.943C220.261 313.47 220.641 313.081 221.112 313.075C234.849 312.918 270.615 313.828 305.989 325.65C306.44 325.8 306.683 326.286 306.532 326.735C306.381 327.182 305.893 327.415 305.45 327.276C270.318 315.54 234.78 314.631 221.132 314.788C221.056 314.789 220.976 314.778 220.905 314.759Z" fill="#5B2714"/>
<path d="M246.227 158.187C245.859 158.09 245.589 157.754 245.59 157.356C245.622 133.513 245.431 131.248 244.521 124.483C244.204 122.118 244.744 120.185 245.266 118.313C245.93 115.929 246.503 113.87 245.154 111.258C244.568 110.12 243.46 108.973 241.948 107.939C241.558 107.673 241.457 107.141 241.723 106.748C241.992 106.359 242.526 106.259 242.914 106.524C244.659 107.718 245.962 109.082 246.68 110.472C248.334 113.68 247.614 116.269 246.915 118.774C246.443 120.479 245.951 122.241 246.221 124.253C247.143 131.115 247.336 133.402 247.303 157.36C247.302 157.833 246.92 158.217 246.447 158.215C246.37 158.214 246.297 158.205 246.227 158.187Z" fill="#5B2714"/>
<path d="M263.287 159.98C262.988 159.902 262.739 159.664 262.668 159.339C260.214 148.319 257.988 131.944 257.92 129.228C257.885 127.816 257.953 126.395 258.021 125.025C258.098 123.44 258.177 121.805 258.087 120.232C258.032 119.224 257.775 118.275 257.502 117.268C257.236 116.28 256.961 115.262 256.872 114.15C256.725 112.264 256.924 107.295 262.006 101.922C263.879 99.9522 266.908 97.955 270.32 96.4479C270.754 96.256 271.259 96.4527 271.449 96.8838C271.641 97.3182 271.444 97.8229 271.013 98.0155C267.846 99.4146 264.945 101.315 263.252 103.101C258.51 108.109 258.478 112.72 258.583 114.016C258.655 114.967 258.9 115.869 259.156 116.821C259.437 117.868 259.731 118.95 259.799 120.134C259.89 121.796 259.809 123.481 259.732 125.108C259.666 126.448 259.6 127.836 259.635 129.183C259.694 131.575 261.886 147.949 264.341 158.966C264.444 159.43 264.155 159.886 263.691 159.989C263.552 160.019 263.417 160.014 263.287 159.98Z" fill="#5B2714"/>
<path d="M309.453 163.77C309.134 163.686 308.88 163.424 308.826 163.079C306.241 147.102 298.425 130.29 293.256 119.164C291.315 114.992 289.782 111.696 289.051 109.559C288.219 107.138 287.8 105.062 287.428 103.229C286.668 99.4817 286.252 97.4188 283.237 96.3161C282.791 96.1529 282.561 95.6623 282.724 95.2168C282.887 94.7713 283.382 94.5388 283.823 94.7069C287.741 96.1361 288.317 98.9691 289.108 102.89C289.467 104.668 289.874 106.685 290.669 109.001C291.375 111.058 292.89 114.316 294.807 118.441C300.021 129.653 307.894 146.595 310.517 162.805C310.591 163.272 310.273 163.711 309.807 163.787C309.686 163.807 309.565 163.799 309.453 163.77Z" fill="#5B2714"/>
<path d="M257.544 110.197C257.464 110.176 257.391 110.145 257.32 110.101C252.542 107.23 245.321 102.892 246.505 94.5602C246.792 92.5235 247.186 90.4669 247.606 88.2876C248.565 83.2888 249.656 77.6253 249.752 70.4145C249.802 66.6491 249.574 63.3546 249.355 60.1667C248.975 54.678 248.648 49.9363 250.001 45.0804C252.204 37.1713 257.879 27.9697 265.149 26.457C271.42 25.15 276.811 31.6965 279.168 38.3309C280.714 42.6825 280.14 47.1224 279.531 51.8212C279.245 54.0133 278.95 56.2822 278.843 58.6849C278.506 66.1256 279.007 69.9063 280.586 76.8158C281.087 79.0201 282.491 82.5107 283.728 85.5911C284.313 87.0475 284.851 88.3903 285.224 89.4274C285.349 89.7676 285.519 90.1395 285.696 90.5273C286.454 92.1929 287.601 94.7079 285.389 96.2557C285.001 96.5289 284.465 96.4331 284.195 96.0462C283.924 95.6592 284.019 95.1258 284.407 94.8527C285.303 94.2224 285.063 93.2709 284.136 91.2368C283.937 90.8038 283.753 90.3888 283.613 90.008C283.245 88.9862 282.712 87.6646 282.137 86.2275C280.877 83.0906 279.449 79.5342 278.915 77.1972C277.371 70.435 276.782 66.3549 277.13 58.6066C277.244 56.1326 277.54 53.8274 277.831 51.6029C278.437 46.9147 278.96 42.8672 277.552 38.9016C275.37 32.7588 270.528 27.0868 265.498 28.1336C258.932 29.5012 253.718 38.1137 251.651 45.5395C250.379 50.1119 250.696 54.7186 251.063 60.049C251.277 63.1197 251.516 66.6003 251.465 70.4392C251.366 77.8014 250.263 83.5434 249.289 88.6115C248.874 90.7697 248.483 92.8045 248.198 94.8022C247.258 101.456 252.392 105.14 258.203 108.633C258.607 108.875 258.739 109.403 258.495 109.807C258.294 110.143 257.902 110.291 257.544 110.197Z" fill="#5B2714"/>
<path d="M269.051 90.1671C270.336 94.122 271.94 96.7869 272.786 97.1102C276.091 98.363 280.463 96.7416 282.339 95.0842C283.109 94.4088 283.211 93.9673 283.186 93.8683C282.556 91.2744 281.091 87.6087 279.679 84.0633C278.566 81.2754 277.517 78.6441 277.01 76.8482C275.674 72.1059 275.396 69.184 275.124 66.3588C275.011 65.1853 274.904 64.0776 274.724 62.8553C274.524 61.5018 272.719 61.0748 271.23 61.1155C268.281 61.1983 265.002 62.8993 264.735 65.8883C264.385 69.8032 265.374 76.7508 266.483 81.3015C266.703 82.2033 267.064 83.3667 267.481 84.7129C268.016 86.4349 268.603 88.3278 269.051 90.1671ZM259.919 106.433C259.906 106.43 259.898 106.428 259.885 106.424C259.433 106.286 259.178 105.807 259.316 105.355C260.553 101.323 263.08 100.041 265.108 99.0122C266.642 98.2347 267.526 97.7408 267.876 96.6104C268.299 95.2354 267.97 92.9871 267.393 90.6089C267.343 90.4557 267.304 90.3276 267.274 90.2299C267.246 90.1414 267.233 90.0538 267.233 89.9696C266.812 88.3365 266.298 86.676 265.845 85.2221C265.418 83.8481 265.049 82.6603 264.817 81.7077C263.872 77.8226 262.616 70.3647 263.031 65.735C263.383 61.7616 267.494 59.5082 271.181 59.4033C274.071 59.3217 276.124 60.5791 276.421 62.606C276.607 63.8719 276.72 65.0539 276.829 66.1959C277.093 68.9459 277.367 71.7882 278.66 76.3846C279.139 78.092 280.175 80.683 281.27 83.4273C282.707 87.0295 284.193 90.7514 284.851 93.4648C285.007 94.1001 284.893 95.119 283.476 96.3701C281.291 98.2941 276.345 100.297 272.178 98.7112C271.291 98.3743 270.45 97.3261 269.724 96.0669C269.681 96.4427 269.612 96.7918 269.513 97.1162C268.932 98.9938 267.382 99.7809 265.881 100.542C263.962 101.515 261.976 102.521 260.957 105.856C260.821 106.297 260.362 106.55 259.919 106.433Z" fill="#5B2714"/>
<path d="M250.185 104.802C250.058 104.768 249.933 104.704 249.828 104.607C249.106 103.948 248.409 103.344 247.752 102.774C244.529 99.9815 241.983 97.7748 242.333 93.8776L242.434 92.7129C242.963 86.5443 243.604 80.5545 244.7 78.5054C245.25 77.475 246.028 77.0318 246.654 76.6767C247.387 76.2617 247.756 76.0524 247.859 75.0428C247.95 74.1687 247.639 73.0397 247.243 71.6084C246.781 69.9281 246.201 67.8357 245.986 65.1357C245.69 61.407 244.787 50.0601 247.014 42.054C249.218 34.1433 254.896 24.9417 262.163 23.4302C265.353 22.7685 273.266 22.5512 277.758 34.8759C277.92 35.3211 277.69 35.8122 277.247 35.9757C276.8 36.1378 276.309 35.9074 276.148 35.4629C272.261 24.7946 265.936 24.3952 262.511 25.1072C255.948 26.4734 250.734 35.088 248.665 42.5146C246.52 50.2279 247.403 61.3458 247.695 64.9988C247.897 67.538 248.45 69.5407 248.895 71.1526C249.339 72.7564 249.688 74.0234 249.566 75.2196C249.369 77.1052 248.332 77.6934 247.496 78.1666C246.954 78.4745 246.528 78.7194 246.209 79.3126C245.131 81.3344 244.437 89.4101 244.143 92.8611L244.038 94.0325C243.765 97.0549 245.797 98.8147 248.873 101.478C249.541 102.059 250.249 102.671 250.982 103.341C251.332 103.659 251.358 104.202 251.039 104.552C250.816 104.794 250.486 104.881 250.185 104.802Z" fill="#5B2714"/>
<path d="M261.268 66.5268C261.164 66.4994 261.06 66.4721 260.957 66.4422C260.502 66.3119 260.242 65.8362 260.372 65.3819C260.505 64.9282 260.925 64.683 261.436 64.7955C261.524 64.8214 261.612 64.8473 261.703 64.8713C266.413 66.1093 273.359 64.8321 277.194 62.8922C277.614 62.6795 278.129 62.8474 278.343 63.2703C278.558 63.6932 278.39 64.2082 277.965 64.4221C273.758 66.5467 266.435 67.8849 261.268 66.5268Z" fill="#5B2714"/>
<path d="M261.62 77.0866C261.346 77.0145 261.113 76.8066 261.021 76.5162C260.876 76.0654 261.124 75.5848 261.575 75.4399C267.115 73.6725 273.433 69.2363 276.603 64.8934C276.883 64.5107 277.42 64.4292 277.801 64.7058C278.184 64.9857 278.268 65.5212 277.989 65.9039C274.63 70.5096 267.945 75.2051 262.096 77.0732C261.936 77.1236 261.773 77.1267 261.62 77.0866Z" fill="#5B2714"/>
<path d="M266.111 78.9861C264.059 78.447 262.286 77.7716 261.212 76.9328C260.84 76.642 260.774 76.1042 261.065 75.7315C261.359 75.357 261.9 75.2925 262.269 75.5851C264.869 77.6211 273.402 78.82 279.922 79.2307C280.395 79.2583 280.75 79.6659 280.723 80.1379C280.692 80.6093 280.287 80.9683 279.815 80.9406C278.064 80.8304 271.236 80.3332 266.111 78.9861Z" fill="#5B2714"/>
<path d="M272.388 72.9095C268.841 71.9774 264.428 70.0691 260.708 66.3896C260.372 66.0581 260.37 65.514 260.701 65.1777C261.035 64.8421 261.577 64.8396 261.913 65.1712C268.888 72.0689 277.85 71.9878 277.941 71.9844C278.417 71.9729 278.811 72.3442 278.824 72.8147C278.839 73.2884 278.467 73.6825 277.994 73.6973C276.897 73.7315 274.853 73.5576 272.388 72.9095Z" fill="#5B2714"/>
<path d="M264.11 87.4689C263.923 87.4198 263.751 87.306 263.631 87.1376C263.355 86.7503 263.446 86.2159 263.83 85.9419C269.462 81.9345 274.404 78.211 277.895 73.2494C278.167 72.861 278.695 72.7672 279.089 73.0404C279.474 73.314 279.567 73.8474 279.298 74.2339C275.65 79.4196 270.587 83.2374 264.827 87.3369C264.608 87.4903 264.348 87.5315 264.11 87.4689Z" fill="#5B2714"/>
<path d="M265.34 88.2728C264.917 88.1615 264.536 88.0474 264.196 87.9273C263.748 87.7705 263.514 87.2814 263.67 86.8336C263.827 86.3885 264.326 86.1592 264.761 86.31C267.634 87.3166 274.059 88.0442 283.859 88.4657C284.334 88.4872 284.699 88.8848 284.678 89.3571C284.66 89.8302 284.262 90.1977 283.787 90.1762C274.797 89.7887 268.733 89.1644 265.34 88.2728Z" fill="#5B2714"/>
<path d="M266.471 96.7142C266.255 96.6577 266.061 96.5208 265.944 96.3127C265.709 95.9017 265.849 95.3789 266.26 95.1434C266.368 95.0804 277.007 88.9556 280.541 83.9307C280.813 83.542 281.343 83.4516 281.735 83.7234C282.121 83.9939 282.216 84.5286 281.942 84.9166C278.19 90.2528 267.563 96.3725 267.113 96.631C266.911 96.7468 266.68 96.7694 266.471 96.7142Z" fill="#5B2714"/>
<path d="M261.573 65.5247C261.546 65.5176 261.523 65.5247 261.504 65.53C261.311 65.5948 261.069 65.9144 261.143 66.4245C261.153 66.4954 261.166 66.5565 261.176 66.6065C261.216 66.5565 261.257 66.4967 261.288 66.4312C261.412 66.1593 261.658 65.9825 261.929 65.9384C261.852 65.8709 261.779 65.7888 261.729 65.6915C261.663 65.5744 261.615 65.5356 261.573 65.5247ZM260.699 68.4102C260.297 68.3044 259.627 67.9368 259.447 66.6663C259.243 65.2534 260.056 64.2073 260.965 63.9055C261.862 63.6085 262.752 63.9868 263.234 64.8693C263.46 65.2857 263.305 65.8066 262.891 66.0337C262.802 66.0812 262.71 66.1121 262.617 66.127C262.905 66.3681 263.01 66.7788 262.85 67.1383C262.511 67.8785 261.716 68.5646 260.849 68.4391C260.806 68.433 260.753 68.4244 260.699 68.4102Z" fill="#5B2714"/>
<path d="M261.332 78.937C260.875 78.8168 259.989 78.3144 259.88 76.2345C259.812 74.8949 260.468 74.3986 260.869 74.2236C261.59 73.903 262.426 74.194 262.872 74.6471C263.261 75.04 263.374 75.5641 263.171 76.0131C262.973 76.4448 262.471 76.6353 262.036 76.4391C261.822 76.3404 261.669 76.168 261.592 75.9655C261.589 76.0176 261.587 76.0752 261.59 76.1447C261.607 76.4823 261.653 76.7426 261.706 76.9312C261.936 76.6003 262.381 76.4742 262.762 76.6456C263.192 76.8406 263.381 77.3476 263.185 77.78C262.597 79.0714 261.682 79.0051 261.417 78.9567C261.392 78.9527 261.364 78.9455 261.332 78.937Z" fill="#5B2714"/>
<path d="M263.999 86.1611C263.931 86.25 263.856 86.4336 263.882 86.7402C263.904 86.9814 263.936 87.1745 263.975 87.3237C264.053 87.0981 264.051 86.8514 264.032 86.3943C264.03 86.2895 264.015 86.2134 263.999 86.1611ZM263.577 89.3565C263.569 89.3546 263.563 89.3501 263.553 89.3475C263.011 89.1972 262.332 88.6469 262.176 86.891C262.092 85.9593 262.436 85.1376 263.097 84.6906C263.615 84.3372 264.24 84.2877 264.767 84.5544C265.359 84.8571 265.716 85.5047 265.744 86.3309L265.746 86.334C265.773 87.1087 265.8 87.8408 265.175 88.6798C264.748 89.2552 264.152 89.5078 263.577 89.3565Z" fill="#5B2714"/>
<path d="M265.509 98.2815C265.161 98.1899 264.708 97.9087 264.47 97.1061C264.288 96.5045 264.093 94.6568 265.067 94.0456C265.304 93.8944 265.946 93.6176 266.723 94.3215C267.515 95.0402 267.706 95.7332 267.724 96.1865C267.747 96.6976 267.567 97.196 267.232 97.5539C267.019 97.7813 266.37 98.4833 265.542 98.2901C265.53 98.2868 265.52 98.2842 265.509 98.2815Z" fill="#5B2714"/>
<path d="M245.236 110.318C245.141 110.293 245.048 110.251 244.961 110.189C244.574 109.916 244.481 109.38 244.756 108.996C245.416 108.062 245.478 106.722 245.551 105.023C245.606 103.886 245.662 102.596 245.91 101.152C245.991 100.685 246.436 100.374 246.9 100.452C247.364 100.533 247.678 100.978 247.6 101.443C247.367 102.78 247.313 104.013 247.266 105.101C247.179 107 247.106 108.641 246.156 109.984C245.943 110.283 245.573 110.407 245.236 110.318Z" fill="#5B2714"/>
<path d="M219.782 107.888C219.52 107.82 219.296 107.629 219.195 107.356C218.613 105.78 219.124 104.101 219.772 101.971C219.891 101.578 220.017 101.166 220.142 100.728C220.945 97.9484 221.604 94.1447 221.746 91.4782C221.899 88.6001 222.712 73.8536 223.696 66.0448C224.557 59.1948 228.957 51.1273 235.468 44.4661C239.524 40.316 242.816 40.2343 247.53 41.5457C247.985 41.6732 248.252 42.1443 248.125 42.5998C247.997 43.0577 247.525 43.327 247.07 43.1971C242.198 41.8468 239.888 42.3986 236.696 45.6632C230.436 52.0671 226.213 59.767 225.394 66.2583C224.639 72.2696 223.878 83.6505 223.456 91.568C223.308 94.3934 222.637 98.2662 221.789 101.205C221.662 101.65 221.534 102.069 221.41 102.472C220.835 104.362 220.42 105.727 220.802 106.765C220.965 107.206 220.739 107.7 220.296 107.863C220.124 107.927 219.946 107.932 219.782 107.888Z" fill="#5B2714"/>
<path d="M225.712 104.933C225.671 104.922 225.631 104.909 225.592 104.891C225.157 104.704 224.955 104.201 225.142 103.766C227.876 97.4085 232.618 77.3013 233.69 71.7952C233.981 70.3038 235.028 69.1844 236.64 68.643C239.469 67.6944 243.596 68.66 246.031 70.8422C247.392 72.064 246.763 76.6414 246.429 78.5511C246.349 79.0163 245.904 79.329 245.439 79.2481C244.984 79.1698 244.661 78.7228 244.742 78.2577C245.229 75.4594 245.295 72.5893 244.882 72.1133C242.903 70.3408 239.448 69.5077 237.186 70.2689C236.156 70.614 235.547 71.2379 235.371 72.1232C234.29 77.6735 229.498 97.9742 226.716 104.441C226.548 104.837 226.117 105.039 225.712 104.933Z" fill="#5B2714"/>
<path d="M242.362 108.112C241.965 108.008 241.69 107.63 241.728 107.208C241.85 105.809 242.198 102.043 242.769 97.272C242.828 96.8011 243.255 96.4682 243.724 96.5218C244.185 96.5808 244.529 97.0049 244.472 97.4764C243.903 102.222 243.557 105.968 243.435 107.359C243.394 107.83 242.979 108.178 242.506 108.137C242.458 108.132 242.408 108.124 242.362 108.112Z" fill="#5B2714"/>
<path d="M233.86 109.211C231.886 108.692 229.848 107.91 228.439 106.862C225.747 104.866 226.327 101.676 226.795 99.1103C226.881 98.644 227.326 98.3368 227.791 98.42C228.255 98.4954 228.568 98.9502 228.481 99.4165C227.964 102.261 227.752 104.218 229.46 105.488C232.338 107.628 238.293 108.441 239.303 108.24C241.018 107.897 241.306 107.225 241.667 106.07C241.722 105.851 241.922 104.339 242.082 103.012C242.138 102.543 242.565 102.208 243.037 102.264C243.509 102.329 243.841 102.747 243.785 103.219C243.619 104.578 243.403 106.265 243.302 106.582C242.845 108.046 242.219 109.403 239.64 109.92C238.736 110.102 236.348 109.865 233.86 109.211Z" fill="#5B2714"/>
<path d="M224.237 67.5075C223.833 67.4013 223.56 67.0138 223.605 66.5858C225.26 51.2923 229.67 45.9623 235.262 40.5835C238.822 37.1594 242.944 36.349 248.676 37.9306C249.132 38.0581 249.399 38.5293 249.273 38.9854C249.145 39.4433 248.717 39.7344 248.219 39.5827C243.103 38.1579 239.567 38.8224 236.451 41.8196C231.111 46.9545 226.9 52.0495 225.308 66.7696C225.257 67.24 224.836 67.5821 224.363 67.5303C224.32 67.5267 224.278 67.5183 224.237 67.5075Z" fill="#5B2714"/>
<path d="M231.063 71.3078C231.049 71.304 231.036 71.3032 231.026 71.3031C230.819 71.3006 230.487 71.5212 230.385 72.0274C230.369 72.0982 230.361 72.1582 230.356 72.2085C230.414 72.1746 230.471 72.1328 230.522 72.0788C230.728 71.864 231.016 71.7819 231.291 71.8283C231.235 71.7384 231.196 71.6378 231.179 71.5271C231.153 71.3599 231.104 71.3186 231.063 71.3078ZM229.743 73.9468C229.639 73.9194 229.539 73.8799 229.438 73.8278C229.125 73.6625 228.417 73.1247 228.704 71.6915C228.984 70.2904 230.099 69.5719 231.057 69.5907C232.005 69.6045 232.71 70.2606 232.871 71.2525C232.947 71.7202 232.629 72.1619 232.162 72.2357C232.065 72.2516 231.969 72.2522 231.878 72.2359C232.067 72.5575 232.031 72.9825 231.756 73.2675C231.265 73.7775 230.457 74.1344 229.743 73.9468Z" fill="#5B2714"/>
<path d="M226.806 84.0697C226.661 84.0315 226.548 83.9762 226.486 83.939C226.113 83.7221 225.312 82.9889 225.94 80.8588C226.319 79.5742 227.103 79.3251 227.537 79.2915C228.329 79.2306 229.017 79.7815 229.288 80.3571C229.526 80.8571 229.459 81.388 229.117 81.7456C228.789 82.0864 228.245 82.0987 227.904 81.771C227.735 81.6076 227.647 81.3928 227.642 81.1743C227.622 81.2208 227.605 81.2758 227.585 81.3429C227.488 81.672 227.443 81.9294 227.428 82.1246C227.757 81.8876 228.219 81.9132 228.52 82.2045C228.861 82.5322 228.871 83.0731 228.545 83.4169C227.83 84.1603 227.191 84.1708 226.806 84.0697Z" fill="#5B2714"/>
<path d="M226.443 91.6176C226.352 91.6894 226.234 91.85 226.191 92.1542C226.156 92.3935 226.141 92.5888 226.142 92.7417C226.274 92.5382 226.327 92.2936 226.417 91.854C226.439 91.7511 226.444 91.6723 226.443 91.6176ZM225.568 94.7384C225.462 94.7104 225.359 94.6703 225.262 94.6139C224.768 94.3391 224.237 93.6432 224.497 91.9031C224.635 90.9767 225.163 90.2566 225.907 89.976C226.495 89.7579 227.113 89.8558 227.561 90.2375C228.067 90.6679 228.262 91.3816 228.098 92.1923C228.097 92.1947 228.097 92.1971 228.097 92.1971C227.941 92.9558 227.794 93.6726 226.995 94.3422C226.54 94.7221 226.028 94.8592 225.568 94.7384Z" fill="#5B2714"/>
<path d="M224.311 103.702C224.19 103.67 224.069 103.618 223.954 103.543C223.646 103.349 223.291 102.935 223.332 102.071C223.363 101.442 223.796 99.6364 224.914 99.3816C225.186 99.3187 225.884 99.2719 226.382 100.192C226.893 101.133 226.842 101.847 226.71 102.281C226.564 102.77 226.228 103.181 225.795 103.409C225.562 103.531 224.931 103.865 224.311 103.702Z" fill="#5B2714"/>
<path d="M225.431 102.4C225.111 102.316 224.857 102.05 224.803 101.704C224.727 101.237 225.047 100.798 225.514 100.724C231.684 99.7405 239.43 96.5629 242.473 95.2437C242.911 95.0559 243.412 95.255 243.6 95.69C243.789 96.1226 243.589 96.6288 243.156 96.8178C240.053 98.1625 232.146 101.401 225.784 102.415C225.662 102.434 225.542 102.429 225.431 102.4Z" fill="#5B2714"/>
<path d="M243.465 106.656C243.347 106.624 243.226 106.572 243.108 106.497C242.802 106.303 242.447 105.891 242.488 105.027C242.52 104.397 242.95 102.59 244.07 102.336C244.348 102.274 245.04 102.229 245.539 103.146C246.047 104.087 245.999 104.801 245.866 105.237C245.717 105.726 245.384 106.138 244.949 106.365C244.718 106.488 244.085 106.818 243.465 106.656Z" fill="#5B2714"/>
<path d="M226.299 93.1537C225.979 93.0697 225.725 92.8063 225.669 92.4602C225.595 91.9932 225.914 91.5546 226.38 91.4776C232.553 90.4947 240.298 87.3195 243.343 86.0009C243.778 85.8125 244.282 86.0122 244.471 86.4448C244.657 86.8792 244.46 87.3836 244.025 87.572C240.921 88.9167 233.014 92.1554 226.651 93.1713C226.53 93.1911 226.41 93.1829 226.299 93.1537Z" fill="#5B2714"/>
<path d="M226.955 82.9857C226.635 82.9017 226.381 82.6383 226.325 82.2923C226.251 81.8252 226.571 81.3866 227.038 81.3103C233.42 80.2916 246.116 74.8393 247.541 74.2204C247.976 74.032 248.48 74.2317 248.668 74.6668C248.857 75.0994 248.657 75.6056 248.224 75.7946C246.776 76.4205 233.897 81.9513 227.307 83.0033C227.186 83.0231 227.066 83.015 226.955 82.9857Z" fill="#5B2714"/>
<path d="M243.908 105.504C240.899 104.714 228.247 95.1449 226.328 92.053C226.079 91.6513 226.202 91.1223 226.604 90.8734C227.007 90.6221 227.535 90.748 227.784 91.1498C229.92 94.5885 242.637 103.32 244.221 103.85C244.601 103.87 244.935 104.144 245.014 104.533C245.113 104.996 244.815 105.448 244.352 105.546C244.246 105.567 244.094 105.553 243.908 105.504Z" fill="#5B2714"/>
<path d="M242.835 93.7353C239.878 92.958 228.792 84.6469 226.925 81.6388C226.674 81.2364 226.797 80.7075 227.199 80.4586C227.602 80.2073 228.13 80.3332 228.379 80.735C230.436 84.0495 241.573 91.6079 243.18 92.0873C243.572 92.0945 243.916 92.3711 244 92.7685C244.098 93.2316 243.8 93.6862 243.338 93.782C243.217 93.8097 243.046 93.7907 242.835 93.7353Z" fill="#5B2714"/>
<path d="M244.113 82.3653C241.074 81.5664 231.291 73.898 229.657 71.2642C229.406 70.8618 229.529 70.3328 229.931 70.0839C230.334 69.8326 230.862 69.9586 231.111 70.3603C233.232 73.7794 243.162 80.3248 244.542 80.7238C244.939 80.7219 245.29 81.0005 245.375 81.4033C245.474 81.8664 245.176 82.3211 244.712 82.4193C244.562 82.4496 244.36 82.4302 244.113 82.3653Z" fill="#5B2714"/>
<path d="M233.976 73.3826C232.645 73.0327 231.265 72.6234 229.858 72.15C229.409 71.9983 229.166 71.5129 229.318 71.0637C229.47 70.6146 229.953 70.3794 230.404 70.5263C239.729 73.6631 248.017 73.7999 248.099 73.8009C248.576 73.8097 248.953 74.196 248.945 74.6675C248.94 75.1397 248.553 75.5192 248.081 75.5142C247.784 75.5112 241.714 75.4162 233.976 73.3826Z" fill="#5B2714"/>
<path d="M326.387 305.161C325.977 305.053 325.698 304.649 325.758 304.214C325.815 303.805 325.821 303.524 325.824 303.499L332.611 225.64C332.664 225.064 332.656 223.399 332.012 222.558C331.387 221.739 329.913 221.417 329.394 221.36L316.177 220.207C315.715 220.176 315.357 219.751 315.4 219.278C315.445 218.808 315.86 218.46 316.329 218.501L329.556 219.654C329.838 219.685 332.187 219.966 333.375 221.517C334.54 223.04 334.342 225.517 334.316 225.795L327.532 303.576C327.534 303.582 327.525 303.939 327.455 304.451C327.39 304.92 326.957 305.246 326.487 305.182C326.455 305.176 326.422 305.17 326.387 305.161Z" fill="#5B2714"/>
<path d="M179.134 297.203C178.091 296.929 176.899 296.434 176.124 295.545C174.524 293.709 175.009 290.465 175.029 290.328L181.801 212.4C181.806 212.166 181.925 209.666 183.423 208.376C184.91 207.098 187.466 207.268 187.752 207.293L200.196 208.378C200.654 208.41 201.018 208.824 200.987 209.29C200.955 209.755 200.566 210.111 200.099 210.089L187.606 208.999C187.031 208.954 185.344 208.984 184.541 209.674C183.754 210.354 183.53 211.946 183.511 212.5L176.729 290.535C176.613 291.311 176.526 293.397 177.416 294.42C178.325 295.461 180.559 295.79 181.343 295.83C181.815 295.845 182.181 296.252 182.157 296.727C182.135 297.197 181.736 297.563 181.263 297.54C181.082 297.531 180.182 297.478 179.134 297.203Z" fill="#5B2714"/>
<path d="M186.833 208.412C186.142 208.23 185.308 207.931 184.668 207.452C183.321 206.435 183.007 204.741 182.996 204.671L168.479 157.071C168.406 156.839 167.772 154.704 168.782 153.391C169.884 151.957 172.536 152.25 172.835 152.289L351.578 167.745C351.792 167.749 354.112 167.85 354.622 169.601C355.059 171.091 354.296 172.603 354.206 172.769L333.184 217.907C333.165 217.955 332.434 219.609 330.782 220.327C329.259 220.987 327.12 220.786 326.878 220.761L316.242 219.833C315.766 219.791 315.402 219.375 315.441 218.906C315.481 218.437 315.872 218.085 316.342 218.122L327.044 219.055C327.587 219.111 329.158 219.163 330.101 218.756C331.12 218.312 331.613 217.216 331.619 217.205L352.674 172.008C352.839 171.683 353.184 170.782 352.978 170.082C352.856 169.667 351.948 169.469 351.485 169.456L172.652 153.992C171.833 153.891 170.504 153.966 170.142 154.435C169.771 154.915 169.963 156.076 170.116 156.565L184.659 204.27C184.684 204.377 184.898 205.479 185.696 206.082C186.443 206.64 187.833 206.905 188.309 206.96L200.16 207.993L200.042 209.705L188.136 208.666C188.016 208.65 187.486 208.583 186.833 208.412Z" fill="#5B2714"/>
<path d="M210.104 154.728C209.722 154.627 209.448 154.271 209.468 153.86C209.72 148.363 211.14 143.877 212.281 140.273C212.82 138.565 213.288 137.091 213.57 135.742C213.959 133.868 214.335 131.059 214.1 129.307C213.855 127.501 213.689 125.554 214.108 123.547C214.377 122.257 214.855 121.107 215.318 119.997C215.783 118.875 216.223 117.813 216.447 116.646C216.588 115.904 216.661 115.124 216.738 114.298C216.943 112.09 217.155 109.807 218.723 107.976C220.864 105.473 223.651 103.877 227.002 103.234C227.468 103.144 227.918 103.448 228.006 103.914C228.096 104.377 227.789 104.827 227.326 104.915C224.364 105.485 221.907 106.888 220.024 109.092C218.811 110.506 218.633 112.426 218.445 114.459C218.367 115.287 218.286 116.146 218.13 116.966C217.876 118.307 217.378 119.501 216.899 120.656C216.448 121.741 216.021 122.764 215.786 123.898C215.441 125.553 215.54 127.165 215.798 129.078C216.06 131.044 215.686 133.991 215.248 136.093C214.946 137.527 214.444 139.111 213.915 140.79C212.804 144.299 211.421 148.665 211.178 153.939C211.157 154.412 210.756 154.778 210.283 154.754C210.222 154.751 210.162 154.743 210.104 154.728Z" fill="#5B2714"/>
</svg>
